<svg xmlns="http://www.w3.org/2000/svg" width="490" height="453" fill="none" viewBox="0 0 490 453"><path stroke="#fff" stroke-width="1" d="M1 346.397C1 288.086 48.266 240.83 106.567 240.825C164.875 240.828 212.138 288.087 212.138 346.397C212.138 404.703 164.872 451.974 106.567 451.974C48.2661 451.974 1 404.703 1 346.397ZM350.562 107.598H350.562C350.026 165.445 302.972 212.186 245.005 212.186C186.695 212.186 139.434 164.905 139.434 106.598C139.434 48.2921 186.695 1.02148 245.005 1.02148C303.305 1.02148 350.562 48.292 350.562 106.598V107.598ZM277.867 346.392C277.867 288.086 325.128 240.82 383.439 240.82C441.739 240.82 489 288.086 489 346.392C489 404.703 441.739 451.979 383.439 451.979C325.128 451.979 277.867 404.703 277.867 346.392Z"/></svg>