<svg width="360" height="360" viewBox="0 0 360 360" fill="none" xmlns="http://www.w3.org/2000/svg">
<path d="M105.984 167.061L106.015 167.101L106.049 167.138C129.194 191.788 144.778 224.83 151.273 258.534C157.769 292.244 155.156 326.525 142.022 353.67L142.016 353.682C141.265 355.289 140.062 356.642 138.554 357.575C137.046 358.508 135.299 358.981 133.527 358.935L133.515 358.935H133.502H10.7182H10.7151C9.23699 358.94 7.77879 358.594 6.4598 357.927L6.45595 357.925C4.19542 356.793 2.47638 354.809 1.67691 352.409C0.877449 350.009 1.06301 347.39 2.19275 345.127C2.19278 345.127 2.19281 345.127 2.19285 345.127L90.3202 168.711L90.3237 168.704L90.327 168.697C90.9615 167.377 91.8885 166.218 93.0374 165.31C94.9874 163.831 97.4428 163.185 99.8675 163.512C102.295 163.839 104.495 165.115 105.984 167.061Z" stroke="white" stroke-width="1"/>
<path d="M172.393 6.45857L172.555 6.21014V6.09531C173.28 4.65453 174.384 3.43639 175.748 2.5722C177.175 1.66894 178.828 1.18945 180.516 1.18945C182.204 1.18945 183.857 1.66894 185.284 2.5722C186.71 3.47547 187.851 4.76544 188.574 6.29215L188.578 6.30179L188.583 6.31132L357.893 345.12C357.894 345.122 357.895 345.123 357.895 345.124C358.546 346.453 358.883 347.913 358.882 349.393V349.396C358.885 350.649 358.64 351.891 358.162 353.05C357.684 354.209 356.982 355.262 356.096 356.148C355.21 357.035 354.158 357.737 353 358.215C351.842 358.694 350.601 358.938 349.349 358.935H349.346H226.588C224.818 358.935 223.082 358.441 221.577 357.509C220.071 356.577 218.854 355.244 218.062 353.659L217.168 354.106L218.062 353.659L158.867 235.194C158.866 235.193 158.866 235.192 158.865 235.191C141.114 199.162 133.027 159.135 135.399 119.036C137.77 78.936 150.518 40.1415 172.393 6.45857Z" stroke="white" stroke-width="1"/>
</svg>
