<svg width="304" height="420" viewBox="0 0 304 420" fill="none" xmlns="http://www.w3.org/2000/svg">
<path d="M290.187 321.595L290.135 321.647L290.09 321.707C272.996 344.813 250.906 368.88 221.814 386.92L221.807 386.924L221.8 386.928C193.664 404.999 161.592 419 123.543 419C88.5958 419 59.5943 401.035 43.5799 386.037C19.595 363.071 6.56214 330.071 2.55014 299.011C-3.46858 250.902 8.31751 194.948 33.0794 144.089C57.8401 93.2326 95.5276 47.57 141.198 19.9928L141.207 19.9872C162.216 6.99381 185.221 1 207.219 1C251.089 1 283.907 31.8603 287.883 69.6012L287.885 69.6134C289.882 86.5751 287.629 102.223 280.185 115.981C272.741 129.739 260.059 141.695 241.048 151.192L241.039 151.196L241.03 151.201C231.515 156.204 224.336 158.41 219.222 158.897C214.092 159.385 211.264 158.136 210.051 156.544C208.424 154.07 209.148 149.624 212.859 146.843L212.878 146.829L212.897 146.813C230.644 132.122 239.862 118.62 244.092 104.404C248.313 90.2184 247.531 75.4369 245.513 58.3003L245.512 58.2912L245.511 58.282C242.443 35.8101 228.045 21.1583 211.251 21.1583C193.508 21.1583 173.937 31.0955 154.851 47.5566C135.741 64.0391 116.994 87.1669 100.886 113.799C68.6873 167.035 46.9037 234.492 53.9966 291.198C56.5334 313.493 64.6501 337.6 79.2817 356.159C93.9361 374.746 115.13 387.763 143.706 387.763C162.02 387.763 182.34 382.685 199.616 373.549C219.299 363.464 233.485 354.864 245.664 344.725C257.846 334.583 267.982 322.931 279.602 306.78C281.129 304.745 282.652 302.462 284.156 300.208L284.165 300.195C285.681 297.924 287.177 295.682 288.669 293.694L288.724 293.622L288.764 293.541C290.534 290.004 294.089 289.058 296.943 289.058C299.416 289.058 303 291.632 303 296.115C303 298.979 302.031 304.78 298.179 309.591L298.112 309.674L298.065 309.768C297.048 311.8 294.088 317.697 290.187 321.595Z" stroke="white" stroke-width="1"/>
</svg>
