<svg width="531" height="240" viewBox="0 0 531 240" fill="none" xmlns="http://www.w3.org/2000/svg">
<path d="M364.276 226.805L364.273 226.815L361.598 236.302C361.597 236.305 361.597 236.307 361.596 236.309C361.113 237.921 359.639 239 358.062 239H4.49414C3.17374 239 2.00552 237.981 1.76785 236.575C1.29745 232.723 1 228.886 1 225.057C1 181.893 35.2676 146.875 78.1587 145.596L79.4005 145.559L79.099 144.353C77.5739 138.256 77.146 131.677 77.7417 124.952C80.333 98.8682 101.26 77.9116 127.401 75.3232C142.053 73.966 155.679 78.2521 166.379 86.1874L167.481 87.0051L167.922 85.705C184.598 36.4752 231.241 1 286.199 1C345.788 1 395.645 42.6457 407.99 98.5134L407.993 98.5269L407.997 98.5403C408.24 99.5149 408.147 100.557 407.73 101.656C407.73 101.656 407.73 101.657 407.729 101.657L396.668 130.417L396.668 130.418C392.403 141.573 384.13 151.739 374.079 159.251C364.03 166.762 352.276 171.568 341.092 172.101L147.818 174.606L147.792 174.606L147.766 174.608C145.391 174.762 143.124 176.442 142.386 178.708L142.374 178.745L142.365 178.783C142.011 180.247 142.191 181.794 142.974 182.975C143.77 184.218 145.169 184.982 146.743 184.984C146.746 184.984 146.748 184.984 146.751 184.984L338.283 187.489C348.152 187.956 356.255 191.91 361.006 198.6L361.009 198.603C366.233 205.897 367.495 215.839 364.276 226.805Z" stroke="white" stroke-width="1"/>
<path d="M420.981 105.214H421.032L421.083 105.209C422.708 105.042 424.513 105.041 426.253 105.041C483.434 105.041 530.001 151.584 530.001 208.558C530.001 218.224 528.631 227.635 526.148 236.579L526.145 236.591L526.142 236.604C525.832 237.842 524.712 238.654 523.395 238.654H377.422C376.423 238.654 375.85 237.79 376.193 236.908C376.193 236.907 376.193 236.907 376.193 236.907L379.304 228.962L379.307 228.955C383.572 217.821 391.803 207.666 401.832 200.159C411.862 192.651 423.623 187.843 434.899 187.315L434.911 187.314L477.389 184.809L477.395 184.809C479.77 184.654 482.037 182.974 482.775 180.709L482.782 180.689L482.787 180.669C483.162 179.333 482.96 177.655 482.193 176.45C481.402 175.209 480.011 174.443 478.443 174.432L437.679 171.929L437.672 171.929L437.665 171.928C427.789 171.464 419.679 167.51 414.925 160.817L414.923 160.813C409.698 153.519 408.436 143.577 411.656 132.611L411.657 132.606L419.119 106.698C419.497 105.775 420.265 105.214 420.981 105.214Z" stroke="white" stroke-width="1"/>
</svg>
