<svg width="491" height="490" viewBox="0 0 491 490" fill="none" xmlns="http://www.w3.org/2000/svg">
<mask id="path-1-inside-1_1164_3" fill="white">
<path d="M425.137 269.635C425.137 274.005 423.416 278.193 420.353 281.282C417.29 284.37 413.138 286.106 408.806 286.106C404.476 286.106 400.321 284.37 397.258 281.282C394.195 278.193 392.475 274.005 392.475 269.635V122.5C392.475 118.133 394.195 113.944 397.258 110.856C400.321 107.765 404.476 106.031 408.806 106.031C413.138 106.031 417.29 107.765 420.353 110.856C423.416 113.944 425.137 118.133 425.137 122.5V269.635ZM419.468 371.584C417.31 373.761 356.576 424.803 245.229 424.803C133.885 424.803 73.5572 374.034 70.9925 371.855C69.3751 370.481 68.0455 368.799 67.0746 366.905C66.1059 365.01 65.5152 362.942 65.3391 360.817C65.1651 358.693 65.4057 356.555 66.0522 354.524C66.6987 352.495 67.7341 350.613 69.1023 348.988C71.9205 345.7 75.9157 343.669 80.2138 343.336C84.5119 343.005 88.7648 344.402 92.0469 347.219C92.992 347.9 147.248 392.271 245.096 392.271C342.945 392.271 397.604 347.627 398.143 347.219C401.462 344.425 405.73 343.048 410.039 343.379C414.35 343.71 418.362 345.721 421.223 348.988C423.977 352.229 425.352 356.435 425.047 360.69C424.744 364.945 422.787 368.91 419.604 371.719L419.468 371.584ZM65.1887 122.5C65.4336 118.12 67.3861 114.013 70.6231 111.079C73.8601 108.146 78.1173 106.624 82.4648 106.847C86.4923 107.077 90.2942 108.805 93.136 111.696C95.9777 114.587 97.6553 118.436 97.8507 122.5V269.365C97.8507 273.732 96.1302 277.92 93.0672 281.009C90.0042 284.099 85.85 285.833 81.5197 285.833C77.1873 285.833 73.0353 284.099 69.9723 281.009C66.9092 277.92 65.1887 273.732 65.1887 269.365V122.5ZM147.112 89.8328C147.355 85.4529 149.31 81.3459 152.547 78.4124C155.784 75.4788 160.041 73.9594 164.386 74.1807C168.416 74.4128 172.218 76.1386 175.059 79.0292C177.899 81.9197 179.579 85.7688 179.772 89.8328V307.611C179.772 311.98 178.052 316.168 174.991 319.257C171.928 322.345 167.774 324.079 163.443 324.079C159.111 324.079 154.957 322.345 151.896 319.257C148.833 316.168 147.112 311.98 147.112 307.611V89.8328ZM229.44 81.6661C229.44 77.2991 231.16 73.1105 234.223 70.0222C237.286 66.9339 241.438 65.1974 245.771 65.1974C250.101 65.1974 254.255 66.9339 257.318 70.0222C260.381 73.1105 262.102 77.2991 262.102 81.6661V318.5C262.102 322.867 260.381 327.056 257.318 330.146C254.255 333.235 250.101 334.969 245.771 334.969C241.438 334.969 237.286 333.235 234.223 330.146C231.16 327.056 229.44 322.867 229.44 318.5V81.6661ZM310.418 89.8328C310.418 85.4658 312.139 81.2772 315.202 78.1889C318.262 75.1006 322.417 73.3641 326.749 73.3641C331.079 73.3641 335.234 75.1006 338.297 78.1889C341.357 81.2772 343.078 85.4658 343.078 89.8328V307.611C343.078 311.98 341.357 316.168 338.297 319.257C335.234 322.345 331.079 324.079 326.749 324.079C322.417 324.079 318.262 322.345 315.202 319.257C312.139 316.168 310.418 311.98 310.418 307.611V89.8328ZM429.592 0.00135809H61.4104C53.3878 -0.0523702 45.4338 1.48856 38.0019 4.54032C30.572 7.58994 23.8102 12.0902 18.1074 17.779C12.4024 23.4677 7.86801 30.2375 4.7599 37.6971C1.65394 45.1546 0.0365155 53.1601 0 61.2516V428.751C0.0365155 436.84 1.65394 444.845 4.7599 452.305C7.86801 459.763 12.4024 466.532 18.1074 472.221C23.8102 477.91 30.572 482.41 38.0019 485.46C45.4338 488.511 53.3878 490.052 61.4104 489.999H429.592C437.602 490.052 445.545 488.516 452.966 485.473C460.389 482.432 467.143 477.944 472.845 472.268C478.548 466.595 483.087 459.842 486.201 452.398C489.316 444.955 490.946 436.965 491 428.886V61.2516C490.963 53.1708 489.35 45.1782 486.253 37.7272C483.153 30.2762 478.63 23.515 472.94 17.8262C467.252 12.1396 460.505 7.63722 453.091 4.579C445.676 1.52079 437.737 -0.0351771 429.725 0.00135809"/>
</mask>
<path d="M397.258 110.856L397.968 111.56L397.969 111.56L397.258 110.856ZM420.353 110.856L419.643 111.56L419.643 111.56L420.353 110.856ZM419.468 371.584L420.176 370.877L419.466 370.166L418.758 370.88L419.468 371.584ZM70.9925 371.855L71.6401 371.093L71.6398 371.092L70.9925 371.855ZM67.0746 366.905L66.1842 367.36L66.1848 367.361L67.0746 366.905ZM65.3391 360.817L64.3424 360.898L64.3425 360.899L65.3391 360.817ZM66.0522 354.524L65.0994 354.22L65.0993 354.221L66.0522 354.524ZM69.1023 348.988L68.343 348.337L68.3374 348.344L69.1023 348.988ZM80.2138 343.336L80.137 342.339L80.1365 342.339L80.2138 343.336ZM92.0469 347.219L91.3956 347.978L91.4278 348.005L91.4622 348.03L92.0469 347.219ZM398.143 347.219L398.747 348.016L398.768 348.001L398.787 347.984L398.143 347.219ZM410.039 343.379L409.962 344.376L409.962 344.376L410.039 343.379ZM421.223 348.988L421.985 348.34L421.98 348.335L421.976 348.329L421.223 348.988ZM425.047 360.69L424.049 360.618L424.049 360.619L425.047 360.69ZM419.604 371.719L418.896 372.426L419.561 373.091L420.265 372.469L419.604 371.719ZM65.1887 122.5L64.1903 122.444L64.1887 122.472V122.5H65.1887ZM82.4648 106.847L82.5218 105.849L82.5162 105.849L82.4648 106.847ZM97.8507 122.5H98.8507V122.476L98.8496 122.452L97.8507 122.5ZM93.0672 281.009L92.3572 280.305L92.357 280.305L93.0672 281.009ZM69.9723 281.009L70.6825 280.305L70.6823 280.305L69.9723 281.009ZM147.112 89.8328L146.114 89.7775L146.112 89.8052V89.8328H147.112ZM164.386 74.1807L164.444 73.1824L164.437 73.182L164.386 74.1807ZM175.059 79.0292L175.773 78.3284L175.773 78.3281L175.059 79.0292ZM179.772 89.8328H180.772V89.8091L180.771 89.7853L179.772 89.8328ZM174.991 319.257L175.701 319.961L175.701 319.961L174.991 319.257ZM151.896 319.257L152.606 318.553L152.606 318.553L151.896 319.257ZM257.318 70.0222L256.608 70.7264L257.318 70.0222ZM257.318 330.146L258.028 330.851L258.028 330.85L257.318 330.146ZM234.223 330.146L233.513 330.85L233.513 330.851L234.223 330.146ZM315.202 78.1889L315.912 78.893L315.912 78.8928L315.202 78.1889ZM338.297 78.1889L339.007 77.4849L339.007 77.4847L338.297 78.1889ZM338.297 319.257L339.007 319.961L339.007 319.961L338.297 319.257ZM315.202 319.257L315.912 318.553L315.912 318.553L315.202 319.257ZM61.4104 0.00135809L61.4037 1.00136H61.4104V0.00135809ZM38.0019 4.54032L38.3816 5.46542L38.3817 5.46537L38.0019 4.54032ZM18.1074 17.779L18.8135 18.4871L18.8136 18.4869L18.1074 17.779ZM4.7599 37.6971L3.83682 37.3125L3.83677 37.3126L4.7599 37.6971ZM0 61.2516L-1 61.247V61.2516H0ZM0 428.751H-1.00001L-0.99999 428.755L0 428.751ZM4.7599 452.305L3.83673 452.689L3.83686 452.69L4.7599 452.305ZM18.1074 472.221L18.8136 471.513L18.8135 471.513L18.1074 472.221ZM38.0019 485.46L38.3817 484.535L38.3816 484.535L38.0019 485.46ZM61.4104 489.999V488.999L61.4037 488.999L61.4104 489.999ZM429.592 489.999L429.598 488.999H429.592V489.999ZM452.966 485.473L452.587 484.547L452.587 484.547L452.966 485.473ZM472.845 472.268L472.14 471.559L472.14 471.56L472.845 472.268ZM486.201 452.398L485.279 452.011L485.279 452.012L486.201 452.398ZM491 428.886L492 428.893V428.886H491ZM491 61.2516L492 61.2516L492 61.247L491 61.2516ZM486.253 37.7272L487.176 37.3433L487.176 37.3431L486.253 37.7272ZM472.94 17.8262L473.647 17.1191L473.647 17.1191L472.94 17.8262ZM425.137 269.635H424.137C424.137 273.742 422.52 277.677 419.643 280.577L420.353 281.282L421.063 281.986C424.313 278.709 426.137 274.267 426.137 269.635H425.137ZM420.353 281.282L419.643 280.577C416.767 283.478 412.87 285.106 408.806 285.106V286.106V287.106C413.407 287.106 417.814 285.262 421.063 281.986L420.353 281.282ZM408.806 286.106V285.106C404.744 285.106 400.845 283.478 397.968 280.577L397.258 281.282L396.548 281.986C399.798 285.262 404.207 287.106 408.806 287.106V286.106ZM397.258 281.282L397.968 280.577C395.092 277.677 393.475 273.742 393.475 269.635H392.475H391.475C391.475 274.267 393.299 278.709 396.548 281.986L397.258 281.282ZM392.475 269.635H393.475V122.5H392.475H391.475V269.635H392.475ZM392.475 122.5H393.475C393.475 118.395 395.092 114.46 397.968 111.56L397.258 110.856L396.548 110.151C393.299 113.428 391.475 117.87 391.475 122.5H392.475ZM397.258 110.856L397.969 111.56C400.845 108.658 404.743 107.031 408.806 107.031V106.031V105.031C404.208 105.031 399.798 106.873 396.548 110.152L397.258 110.856ZM408.806 106.031V107.031C412.87 107.031 416.767 108.658 419.643 111.56L420.353 110.856L421.064 110.152C417.814 106.873 413.406 105.031 408.806 105.031V106.031ZM420.353 110.856L419.643 111.56C422.52 114.46 424.137 118.395 424.137 122.5H425.137H426.137C426.137 117.87 424.313 113.428 421.063 110.151L420.353 110.856ZM425.137 122.5H424.137V269.635H425.137H426.137V122.5H425.137ZM419.468 371.584L418.758 370.88C416.764 372.891 356.277 423.803 245.229 423.803V424.803V425.803C356.875 425.803 417.856 374.63 420.178 372.288L419.468 371.584ZM245.229 424.803V423.803C134.205 423.803 74.0994 373.182 71.6401 371.093L70.9925 371.855L70.345 372.617C73.015 374.885 133.565 425.803 245.229 425.803V424.803ZM70.9925 371.855L71.6398 371.092C70.1235 369.805 68.876 368.226 67.9645 366.449L67.0746 366.905L66.1848 367.361C67.2151 369.371 68.6267 371.158 70.3453 372.617L70.9925 371.855ZM67.0746 366.905L67.9651 366.45C67.0555 364.67 66.501 362.729 66.3357 360.734L65.3391 360.817L64.3425 360.899C64.5294 363.155 65.1563 365.349 66.1842 367.36L67.0746 366.905ZM65.3391 360.817L66.3357 360.735C66.1723 358.741 66.3983 356.733 67.0051 354.827L66.0522 354.524L65.0993 354.221C64.413 356.377 64.1579 358.646 64.3424 360.898L65.3391 360.817ZM66.0522 354.524L67.005 354.828C67.6121 352.922 68.584 351.156 69.8672 349.632L69.1023 348.988L68.3374 348.344C66.8841 350.069 65.7854 352.068 65.0994 354.22L66.0522 354.524ZM69.1023 348.988L69.8616 349.639C72.5079 346.551 76.2582 344.645 80.291 344.333L80.2138 343.336L80.1365 342.339C75.5731 342.692 71.333 344.848 68.343 348.337L69.1023 348.988ZM80.2138 343.336L80.2905 344.333C84.3226 344.022 88.3139 345.332 91.3956 347.978L92.0469 347.219L92.6983 346.46C89.2157 343.471 84.7011 341.987 80.137 342.339L80.2138 343.336ZM92.0469 347.219L91.4622 348.03C91.4594 348.028 91.4717 348.037 91.517 348.073C91.5568 348.103 91.6087 348.144 91.6767 348.197C91.8112 348.302 91.9988 348.448 92.2385 348.631C92.7179 348.998 93.4041 349.515 94.2947 350.16C96.0758 351.45 98.6726 353.252 102.066 355.392C108.853 359.672 118.827 365.307 131.837 370.919C157.857 382.143 196.017 393.271 245.096 393.271V392.271V391.271C147.571 391.271 93.5301 347.056 92.6317 346.408L92.0469 347.219ZM245.096 392.271V393.271C294.176 393.271 332.438 382.074 358.507 370.816C371.541 365.188 381.528 359.544 388.296 355.277C391.68 353.143 394.259 351.353 396.013 350.082C396.89 349.446 397.56 348.94 398.021 348.585C398.251 348.407 398.429 348.268 398.554 348.169C398.616 348.12 398.665 348.081 398.7 348.053C398.743 348.02 398.751 348.014 398.747 348.016L398.143 347.219L397.54 346.422C397.069 346.778 342.624 391.271 245.096 391.271V392.271ZM398.143 347.219L398.787 347.984C401.906 345.358 405.916 344.065 409.962 344.376L410.039 343.379L410.115 342.382C405.544 342.03 401.018 343.492 397.499 346.454L398.143 347.219ZM410.039 343.379L409.962 344.376C414.011 344.687 417.781 346.576 420.471 349.647L421.223 348.988L421.976 348.329C418.943 344.866 414.688 342.733 410.115 342.382L410.039 343.379ZM421.223 348.988L420.461 349.635C423.045 352.676 424.336 356.623 424.049 360.618L425.047 360.69L426.044 360.761C426.368 356.246 424.909 351.781 421.985 348.34L421.223 348.988ZM425.047 360.69L424.049 360.619C423.765 364.614 421.928 368.335 418.942 370.969L419.604 371.719L420.265 372.469C423.646 369.486 425.723 365.276 426.044 360.761L425.047 360.69ZM419.604 371.719L420.311 371.012L420.176 370.877L419.468 371.584L418.761 372.291L418.896 372.426L419.604 371.719ZM65.1887 122.5L66.1872 122.555C66.4174 118.436 68.2536 114.576 71.2946 111.82L70.6231 111.079L69.9516 110.338C66.5186 113.449 64.4497 117.803 64.1903 122.444L65.1887 122.5ZM70.6231 111.079L71.2946 111.82C74.3353 109.064 78.3328 107.636 82.4135 107.846L82.4648 106.847L82.5162 105.849C77.9019 105.612 73.3848 107.227 69.9516 110.338L70.6231 111.079ZM82.4648 106.847L82.4078 107.846C86.1858 108.062 89.7542 109.683 92.4228 112.397L93.136 111.696L93.8491 110.995C90.8341 107.928 86.7988 106.093 82.5218 105.849L82.4648 106.847ZM93.136 111.696L92.4228 112.397C95.0913 115.111 96.6682 118.727 96.8519 122.548L97.8507 122.5L98.8496 122.452C98.6424 118.144 96.8641 114.062 93.8491 110.995L93.136 111.696ZM97.8507 122.5H96.8507V269.365H97.8507H98.8507V122.5H97.8507ZM97.8507 269.365H96.8507C96.8507 273.469 95.2336 277.404 92.3572 280.305L93.0672 281.009L93.7772 281.713C97.0269 278.436 98.8507 273.994 98.8507 269.365H97.8507ZM93.0672 281.009L92.357 280.305C89.481 283.207 85.5822 284.833 81.5197 284.833V285.833V286.833C86.1179 286.833 90.5275 284.992 93.7775 281.713L93.0672 281.009ZM81.5197 285.833V284.833C77.4552 284.833 73.5586 283.207 70.6825 280.305L69.9723 281.009L69.262 281.713C72.512 284.992 76.9193 286.833 81.5197 286.833V285.833ZM69.9723 281.009L70.6823 280.305C67.8059 277.404 66.1887 273.469 66.1887 269.365H65.1887H64.1887C64.1887 273.994 66.0126 278.436 69.2622 281.713L69.9723 281.009ZM65.1887 269.365H66.1887V122.5H65.1887H64.1887V269.365H65.1887ZM147.112 89.8328L148.111 89.8882C148.339 85.7698 150.177 81.9095 153.218 79.1534L152.547 78.4124L151.875 77.6714C148.442 80.7824 146.371 85.1361 146.114 89.7775L147.112 89.8328ZM152.547 78.4124L153.218 79.1534C156.259 76.3979 160.256 74.9716 164.335 75.1794L164.386 74.1807L164.437 73.182C159.826 72.9471 155.309 74.5598 151.875 77.6714L152.547 78.4124ZM164.386 74.1807L164.329 75.1791C168.11 75.3968 171.678 77.0161 174.346 79.7302L175.059 79.0292L175.773 78.3281C172.757 75.2611 168.722 73.4288 164.444 73.1824L164.386 74.1807ZM175.059 79.0292L174.346 79.73C177.013 82.4446 178.592 86.0609 178.773 89.8804L179.772 89.8328L180.771 89.7853C180.566 85.4768 178.785 81.3949 175.773 78.3284L175.059 79.0292ZM179.772 89.8328H178.772V307.611H179.772H180.772V89.8328H179.772ZM179.772 307.611H178.772C178.772 311.717 177.155 315.653 174.28 318.553L174.991 319.257L175.701 319.961C178.948 316.684 180.772 312.242 180.772 307.611H179.772ZM174.991 319.257L174.281 318.553C171.405 321.452 167.506 323.079 163.443 323.079V324.079V325.079C168.041 325.079 172.451 323.238 175.701 319.961L174.991 319.257ZM163.443 324.079V323.079C159.379 323.079 155.48 321.452 152.606 318.553L151.896 319.257L151.186 319.961C154.434 323.238 158.843 325.079 163.443 325.079V324.079ZM151.896 319.257L152.606 318.553C149.729 315.652 148.112 311.717 148.112 307.611H147.112H146.112C146.112 312.242 147.936 316.684 151.186 319.961L151.896 319.257ZM147.112 307.611H148.112V89.8328H147.112H146.112V307.611H147.112ZM229.44 81.6661H230.44C230.44 77.5617 232.057 73.6265 234.933 70.7264L234.223 70.0222L233.513 69.318C230.264 72.5944 228.44 77.0366 228.44 81.6661H229.44ZM234.223 70.0222L234.933 70.7264C237.81 67.8262 241.706 66.1974 245.771 66.1974V65.1974V64.1974C241.17 64.1974 236.763 66.0415 233.513 69.318L234.223 70.0222ZM245.771 65.1974V66.1974C249.833 66.1974 253.732 67.8263 256.608 70.7264L257.318 70.0222L258.028 69.318C254.778 66.0414 250.369 64.1974 245.771 64.1974V65.1974ZM257.318 70.0222L256.608 70.7264C259.484 73.6265 261.102 77.5617 261.102 81.6661H262.102H263.102C263.102 77.0366 261.278 72.5944 258.028 69.318L257.318 70.0222ZM262.102 81.6661H261.102V318.5H262.102H263.102V81.6661H262.102ZM262.102 318.5H261.102C261.102 322.605 259.485 326.54 256.608 329.442L257.318 330.146L258.028 330.85C261.278 327.572 263.102 323.13 263.102 318.5H262.102ZM257.318 330.146L256.608 329.442C253.732 332.342 249.833 333.969 245.771 333.969V334.969V335.969C250.369 335.969 254.778 334.127 258.028 330.851L257.318 330.146ZM245.771 334.969V333.969C241.706 333.969 237.809 332.342 234.933 329.442L234.223 330.146L233.513 330.851C236.763 334.127 241.17 335.969 245.771 335.969V334.969ZM234.223 330.146L234.933 329.442C232.057 326.54 230.44 322.605 230.44 318.5H229.44H228.44C228.44 323.13 230.264 327.572 233.513 330.85L234.223 330.146ZM229.44 318.5H230.44V81.6661H229.44H228.44V318.5H229.44ZM310.418 89.8328H311.418C311.418 85.7284 313.035 81.7932 315.912 78.893L315.202 78.1889L314.492 77.4847C311.242 80.7611 309.418 85.2033 309.418 89.8328H310.418ZM315.202 78.1889L315.912 78.8928C318.786 75.9931 322.685 74.3641 326.749 74.3641V73.3641V72.3641C322.149 72.3641 317.739 74.2081 314.491 77.4849L315.202 78.1889ZM326.749 73.3641V74.3641C330.811 74.3641 334.71 75.993 337.587 78.893L338.297 78.1889L339.007 77.4847C335.757 74.2081 331.348 72.3641 326.749 72.3641V73.3641ZM338.297 78.1889L337.586 78.8928C340.461 81.793 342.078 85.7283 342.078 89.8328H343.078H344.078C344.078 85.2033 342.254 80.7613 339.007 77.4849L338.297 78.1889ZM343.078 89.8328H342.078V307.611H343.078H344.078V89.8328H343.078ZM343.078 307.611H342.078C342.078 311.717 340.461 315.653 337.586 318.553L338.297 319.257L339.007 319.961C342.254 316.684 344.078 312.242 344.078 307.611H343.078ZM338.297 319.257L337.587 318.553C334.711 321.452 330.812 323.079 326.749 323.079V324.079V325.079C331.347 325.079 335.757 323.238 339.007 319.961L338.297 319.257ZM326.749 324.079V323.079C322.684 323.079 318.786 321.452 315.912 318.553L315.202 319.257L314.491 319.961C317.739 323.238 322.149 325.079 326.749 325.079V324.079ZM315.202 319.257L315.912 318.553C313.035 315.652 311.418 311.717 311.418 307.611H310.418H309.418C309.418 312.242 311.242 316.684 314.492 319.961L315.202 319.257ZM310.418 307.611H311.418V89.8328H310.418H309.418V307.611H310.418ZM429.592 0.00135809V-0.998642H61.4104V0.00135809V1.00136H429.592V0.00135809ZM61.4104 0.00135809L61.4171 -0.998619C53.2619 -1.05324 45.1766 0.513168 37.622 3.61527L38.0019 4.54032L38.3817 5.46537C45.6911 2.46394 53.5136 0.948495 61.4037 1.00134L61.4104 0.00135809ZM38.0019 4.54032L37.6222 3.61522C30.0698 6.71513 23.1971 11.2894 17.4012 17.071L18.1074 17.779L18.8136 18.4869C24.4234 12.8911 31.0743 8.46474 38.3816 5.46542L38.0019 4.54032ZM18.1074 17.779L17.4013 17.0708C11.603 22.8526 6.99511 29.7324 3.83682 37.3125L4.7599 37.6971L5.68298 38.0817C8.74092 30.7425 13.2018 24.0828 18.8135 18.4871L18.1074 17.779ZM4.7599 37.6971L3.83677 37.3126C0.680544 44.8908 -0.962887 53.0254 -0.99999 61.247L0 61.2516L0.99999 61.2561C1.03592 53.2948 2.62733 45.4184 5.68304 38.0816L4.7599 37.6971ZM0 61.2516H-1V428.751H0H1V61.2516H0ZM0 428.751L-0.99999 428.755C-0.962886 436.975 0.680557 445.109 3.83673 452.689L4.7599 452.305L5.68307 451.921C2.62732 444.582 1.03592 436.705 0.99999 428.746L0 428.751ZM4.7599 452.305L3.83686 452.69C6.99514 460.268 11.603 467.147 17.4013 472.929L18.1074 472.221L18.8135 471.513C13.2018 465.917 8.74089 459.258 5.68294 451.92L4.7599 452.305ZM18.1074 472.221L17.4012 472.929C23.1971 478.711 30.0698 483.285 37.6222 486.385L38.0019 485.46L38.3816 484.535C31.0743 481.535 24.4234 477.109 18.8136 471.513L18.1074 472.221ZM38.0019 485.46L37.622 486.385C45.1766 489.487 53.2619 491.053 61.4171 490.999L61.4104 489.999L61.4037 488.999C53.5136 489.052 45.6911 487.536 38.3817 484.535L38.0019 485.46ZM61.4104 489.999V490.999H429.592V489.999V488.999H61.4104V489.999ZM429.592 489.999L429.585 490.999C437.727 491.053 445.802 489.491 453.345 486.398L452.966 485.473L452.587 484.547C445.288 487.54 437.476 489.052 429.598 488.999L429.592 489.999ZM452.966 485.473L453.345 486.398C460.891 483.307 467.755 478.746 473.551 472.977L472.845 472.268L472.14 471.56C466.53 477.143 459.888 481.556 452.587 484.547L452.966 485.473ZM472.845 472.268L473.551 472.977C479.347 467.211 483.959 460.349 487.124 452.783L486.201 452.398L485.279 452.012C482.215 459.336 477.75 465.978 472.14 471.559L472.845 472.268ZM486.201 452.398L487.124 452.784C490.289 445.221 491.945 437.101 492 428.893L491 428.886L490 428.879C489.947 436.828 488.343 444.689 485.279 452.011L486.201 452.398ZM491 428.886H492V61.2516H491H490V428.886H491ZM491 61.2516L492 61.247C491.963 53.0362 490.324 44.9148 487.176 37.3433L486.253 37.7272L485.33 38.111C488.377 45.4417 489.964 53.3054 490 61.2561L491 61.2516ZM486.253 37.7272L487.176 37.3431C484.027 29.7716 479.43 22.9006 473.647 17.1191L472.94 17.8262L472.233 18.5334C477.83 24.1294 482.28 30.7807 485.33 38.1113L486.253 37.7272ZM472.94 17.8262L473.647 17.1191C467.866 11.3395 461.009 6.76314 453.472 3.65455L453.091 4.579L452.709 5.50346C460.002 8.51129 466.638 12.9398 472.233 18.5334L472.94 17.8262ZM453.091 4.579L453.472 3.65455C445.935 0.545961 437.865 -1.03577 429.72 -0.998632L429.725 0.00135809L429.729 1.00135C437.609 0.965417 445.417 2.49563 452.709 5.50346L453.091 4.579Z" fill="white" mask="url(#path-1-inside-1_1164_3)"/>
</svg>
