<svg viewBox="0 0 360 360" xmlns="http://www.w3.org/2000/svg">
  <path d="M191.137 358.995C190.409 359.041 189.692 358.767 189.168 358.243L1.75637 170.832C1.23337 170.309 0.959476 169.592 1.00488 168.863C1.53318 160.381 2.65162 152.059 4.31955 143.937C4.71808 141.997 7.11977 141.275 8.56629 142.722L217.278 351.434C218.725 352.88 218.003 355.282 216.063 355.68C207.941 357.348 199.619 358.467 191.137 358.995Z
  M271.681 330.339C272.867 331.525 272.629 333.48 271.218 334.319C265.245 337.867 259.048 341.079 252.654 343.927C251.693 344.355 250.562 344.14 249.808 343.386L16.6141 110.192C15.8595 109.438 15.6451 108.307 16.0728 107.346C18.9209 100.952 22.1325 94.7553 25.6814 88.7824C26.5198 87.3714 28.4748 87.1327 29.6613 88.3192L271.681 330.339Z
  M299.142 313.842C298.141 314.736 296.606 314.687 295.64 313.721L46.2784 64.3593C45.3129 63.3937 45.2633 61.859 46.1577 60.8578C78.9703 24.1231 126.698 1 179.827 1C278.781 1 359 81.2185 359 180.173C359 233.302 335.877 281.03 299.142 313.842Z
  M5.38505 221.254C4.83372 218.903 7.62147 217.274 9.45134 219.104L140.896 350.548C142.726 352.378 141.097 355.166 138.746 354.615C72.7835 339.141 20.8589 287.216 5.38505 221.254Z" 
  fill="none" stroke="white" stroke-width="1"/>
</svg>