<svg width="201" height="196" viewBox="0 0 201 196" fill="none" xmlns="http://www.w3.org/2000/svg">
<path d="M2.57385 61.1384H16.0671L25.3485 83.7571H25.8165L35.098 61.1384H48.5912V101.072H37.9838V77.9854H37.6718L28.7803 100.76H22.3847L13.4932 77.8294H13.1812V101.072H2.57385V61.1384ZM90.4619 76.1135H79.4645C79.3865 75.2036 79.1785 74.3781 78.8405 73.6372C78.5156 72.8962 78.0606 72.2593 77.4756 71.7263C76.9037 71.1803 76.2082 70.7643 75.3892 70.4784C74.5703 70.1794 73.6408 70.0299 72.6009 70.0299C70.781 70.0299 69.2406 70.4719 67.9797 71.3558C66.7317 72.2398 65.7828 73.5072 65.1328 75.1581C64.4959 76.809 64.1774 78.7914 64.1774 81.1052C64.1774 83.5491 64.5024 85.5965 65.1523 87.2474C65.8153 88.8853 66.7707 90.1202 68.0187 90.9522C69.2666 91.7711 70.768 92.1806 72.5229 92.1806C73.5238 92.1806 74.4208 92.0571 75.2138 91.8101C76.0067 91.5501 76.6957 91.1797 77.2806 90.6987C77.8656 90.2177 78.3401 89.6392 78.704 88.9633C79.081 88.2743 79.3345 87.5009 79.4645 86.6429L90.4619 86.7209C90.3319 88.4108 89.8574 90.1332 89.0384 91.8881C88.2195 93.63 87.0561 95.2419 85.5481 96.7238C84.0532 98.1928 82.2008 99.3757 79.991 100.273C77.7811 101.17 75.2137 101.618 72.2889 101.618C68.6231 101.618 65.3343 100.832 62.4225 99.2587C59.5237 97.6858 57.2293 95.3719 55.5394 92.3171C53.8625 89.2623 53.024 85.525 53.024 81.1052C53.024 76.6595 53.882 72.9157 55.5979 69.8739C57.3138 66.8191 59.6277 64.5117 62.5395 62.9518C65.4513 61.3789 68.7011 60.5924 72.2889 60.5924C74.8108 60.5924 77.1311 60.9369 79.25 61.6259C81.3689 62.3148 83.2278 63.3223 84.8267 64.6482C86.4256 65.9611 87.7125 67.5795 88.6875 69.5034C89.6624 71.4273 90.2539 73.6307 90.4619 76.1135ZM94.8314 101.072V61.1384H112.068C115.032 61.1384 117.626 61.7234 119.848 62.8933C122.071 64.0632 123.8 65.7076 125.035 67.8265C126.27 69.9454 126.887 72.4218 126.887 75.2556C126.887 78.1154 126.251 80.5918 124.977 82.6847C123.716 84.7775 121.941 86.3894 119.653 87.5204C117.379 88.6513 114.72 89.2168 111.678 89.2168H101.383V80.7933H109.495C110.768 80.7933 111.854 80.5723 112.751 80.1303C113.661 79.6753 114.356 79.0319 114.837 78.1999C115.331 77.368 115.578 76.3865 115.578 75.2556C115.578 74.1117 115.331 73.1367 114.837 72.3308C114.356 71.5118 113.661 70.8878 112.751 70.4589C111.854 70.0169 110.768 69.7959 109.495 69.7959H105.673V101.072H94.8314Z" fill="white"/>
<path d="M17.939 148.516H2.57385V108.583H17.783C21.8907 108.583 25.4395 109.382 28.4293 110.981C31.4322 112.567 33.746 114.855 35.3709 117.845C37.0088 120.822 37.8278 124.39 37.8278 128.55C37.8278 132.709 37.0153 136.284 35.3904 139.274C33.7655 142.251 31.4647 144.539 28.4878 146.138C25.511 147.723 21.9947 148.516 17.939 148.516ZM13.4152 139.313H17.549C19.5249 139.313 21.2083 138.994 22.5992 138.357C24.0031 137.721 25.069 136.622 25.797 135.062C26.538 133.502 26.9084 131.331 26.9084 128.55C26.9084 125.768 26.5315 123.597 25.7775 122.037C25.0365 120.477 23.9446 119.379 22.5017 118.742C21.0718 118.105 19.3169 117.786 17.237 117.786H13.4152V139.313ZM42.2948 148.516V108.583H71.0751V117.318H53.1362V124.182H69.5932V132.917H53.1362V139.781H70.9971V148.516H42.2948ZM75.9028 108.583H89.3961L98.6775 131.201H99.1455L108.427 108.583H121.92V148.516H111.313V125.43H111.001L102.109 148.204H95.7137L86.8222 125.274H86.5102V148.516H75.9028V108.583ZM165.195 128.55C165.195 132.995 164.33 136.746 162.601 139.8C160.873 142.842 158.539 145.15 155.601 146.722C152.664 148.282 149.388 149.062 145.774 149.062C142.134 149.062 138.845 148.276 135.907 146.703C132.983 145.117 130.656 142.803 128.927 139.761C127.211 136.707 126.353 132.969 126.353 128.55C126.353 124.104 127.211 120.36 128.927 117.318C130.656 114.263 132.983 111.956 135.907 110.396C138.845 108.823 142.134 108.037 145.774 108.037C149.388 108.037 152.664 108.823 155.601 110.396C158.539 111.956 160.873 114.263 162.601 117.318C164.33 120.36 165.195 124.104 165.195 128.55ZM154.041 128.55C154.041 126.158 153.723 124.143 153.086 122.505C152.462 120.854 151.533 119.606 150.298 118.761C149.076 117.903 147.568 117.474 145.774 117.474C143.98 117.474 142.466 117.903 141.231 118.761C140.009 119.606 139.079 120.854 138.442 122.505C137.818 124.143 137.506 126.158 137.506 128.55C137.506 130.941 137.818 132.963 138.442 134.614C139.079 136.252 140.009 137.5 141.231 138.357C142.466 139.202 143.98 139.625 145.774 139.625C147.568 139.625 149.076 139.202 150.298 138.357C151.533 137.5 152.462 136.252 153.086 134.614C153.723 132.963 154.041 130.941 154.041 128.55Z" fill="white"/>
<path d="M17.939 195.961H2.57385V156.027H17.783C21.8907 156.027 25.4395 156.826 28.4293 158.425C31.4322 160.011 33.746 162.299 35.3709 165.289C37.0088 168.266 37.8278 171.834 37.8278 175.994C37.8278 180.154 37.0153 183.728 35.3904 186.718C33.7655 189.695 31.4647 191.983 28.4878 193.582C25.511 195.168 21.9947 195.961 17.939 195.961ZM13.4152 186.757H17.549C19.5249 186.757 21.2083 186.439 22.5992 185.802C24.0031 185.165 25.069 184.066 25.797 182.506C26.538 180.947 26.9084 178.776 26.9084 175.994C26.9084 173.212 26.5315 171.041 25.7775 169.481C25.0365 167.921 23.9446 166.823 22.5017 166.186C21.0718 165.549 19.3169 165.23 17.237 165.23H13.4152V186.757ZM50.148 195.961H38.4486L51.6299 156.027H66.449L79.6302 195.961H67.9309L59.1954 167.024H58.8835L50.148 195.961ZM47.9641 180.206H69.9588V188.317H47.9641V180.206ZM77.2141 156.027H89.3034L97.103 172.25H97.415L105.215 156.027H117.304L102.641 183.403V195.961H91.8773V183.403L77.2141 156.027Z" fill="white"/>
<path d="M81.2822 21.1399C80.9499 21.1399 80.6227 21.1515 80.2954 21.1631C80.2416 21.1659 80.1887 21.1782 80.1392 21.1997C80.0531 21.2286 79.9755 21.2786 79.9134 21.345C79.8514 21.4114 79.8068 21.4922 79.7837 21.5801L78.3783 26.4377C77.7719 28.526 77.9962 30.4547 79.0145 31.8701C79.9498 33.1809 81.5032 33.9484 83.3904 34.0381L91.014 34.4966C91.1214 34.5 91.2264 34.5287 91.3205 34.5804C91.4146 34.6321 91.4952 34.7053 91.5556 34.794C91.6177 34.8887 91.6569 34.9965 91.6701 35.109C91.6834 35.2214 91.6703 35.3354 91.632 35.4419C91.5701 35.6165 91.4591 35.7696 91.3123 35.8827C91.1656 35.9959 90.9894 36.0643 90.8047 36.0798L82.8837 36.5384C78.5809 36.7344 73.9509 40.2098 72.3262 44.4478L71.7547 45.9429C71.731 46.0051 71.7223 46.072 71.7295 46.1381C71.7367 46.2043 71.7594 46.2678 71.7959 46.3234C71.8324 46.379 71.8816 46.4252 71.9394 46.4581C71.9972 46.491 72.062 46.5098 72.1285 46.5127H99.4119C99.5699 46.5142 99.724 46.4637 99.8506 46.3692C99.9772 46.2747 100.069 46.1413 100.113 45.9894C100.597 44.2676 100.842 42.487 100.839 40.6982C100.839 29.8998 92.0906 21.1515 81.2955 21.1515" stroke="white" stroke-width="1.66129"/>
<path d="M69.3753 45.8848L69.8804 44.1289C70.4867 42.0389 70.2608 40.1119 69.2424 38.6948C68.3088 37.3857 66.7555 36.6182 64.8683 36.5284L29.1057 36.0699C28.9946 36.0679 28.8857 36.0398 28.7876 35.9878C28.6894 35.9359 28.6049 35.8616 28.5408 35.7709C28.4785 35.6763 28.439 35.5686 28.4255 35.4561C28.4119 35.3437 28.4247 35.2297 28.4627 35.123C28.5256 34.9478 28.6378 34.7946 28.7857 34.6817C28.9337 34.5688 29.1111 34.5011 29.2967 34.4867L65.3916 34.0282C69.6777 33.8322 74.3077 30.3568 75.9324 26.1188L77.9924 20.7362C78.0757 20.5077 78.0958 20.2609 78.0506 20.0219C75.7082 9.52417 66.3269 1.66129 55.1082 1.66129C44.77 1.66129 35.9983 8.33303 32.8485 17.6064C30.7224 16.0104 28.0717 15.277 25.4276 15.553C23.915 15.7086 22.4537 16.1886 21.1434 16.9601C19.8331 17.7317 18.7045 18.7766 17.8346 20.0238C16.9648 21.271 16.374 22.6911 16.1027 24.1873C15.8313 25.6835 15.8857 27.2206 16.2622 28.6938C8.16176 28.9347 1.66113 35.5715 1.66113 43.7252C1.66113 44.4644 1.71429 45.1904 1.82228 45.8981C1.84482 46.0649 1.92715 46.2178 2.05396 46.3284C2.18077 46.439 2.34344 46.4998 2.51171 46.4995H68.558C68.7431 46.4972 68.9225 46.4352 69.0695 46.3226C69.2165 46.21 69.3232 46.053 69.3737 45.8749" stroke="white" stroke-width="1.66129"/>
</svg>
