<svg xmlns="http://www.w3.org/2000/svg" fill="none" viewBox="0 0 296 360"><path stroke="#fff" stroke-width="1" d="M44.878 13.781C45.961 6.951 51.837 1.918 58.738 1.918H163.79C199.909 1.918 227.809 9.575 243.174 27.105C250.189 35.11 254.697 43.501 256.956 53.124C259.138 62.42 259.232 72.918 257.396 85.401C254.193 83.784 250.755 82.382 247.104 81.16C246.068 80.817 245.019 80.495 243.954 80.184C241.821 79.56 239.621 78.993 237.356 78.492C235.091 77.981 232.761 77.537 230.36 77.151C221.985 75.801 212.834 75.162 203.04 75.162H120.688C118.516 75.162 116.443 75.656 114.583 76.542C110.497 78.508 107.458 82.386 106.714 87.122L73.057 300.893H9.053C4.134 300.893 0.367 296.49 1.14 291.609L44.878 13.781Z"/><path stroke="#fff" stroke-width="1" d="M256.119 92.901C249.235 128.32 234.037 152.041 213.136 166.928C192.214 181.831 165.458 187.966 135.312 187.966H104.486C96.593 187.966 89.933 193.724 88.707 201.519L68.447 330.168C67.594 335.567 71.763 340.464 77.223 340.464H131.89C138.849 340.464 144.769 335.392 145.862 328.52L146.392 325.745L146.398 325.713L156.699 260.324L157.36 256.721L157.365 256.697C158.298 250.785 163.387 246.425 169.364 246.425H177.545C204.147 246.425 227.981 241.014 246.709 227.676C265.458 214.322 278.968 193.108 285.065 161.747C290.15 135.571 287.572 113.448 273.897 97.837C269.747 93.106 264.606 89.214 258.645 86.048L257.407 85.39L257.188 86.775C256.871 88.781 256.528 90.81 256.119 92.901Z"/></svg>