<svg width="492" height="442" viewBox="0 0 492 442" fill="none" xmlns="http://www.w3.org/2000/svg">
<path d="M484.774 415.775C493.975 399.801 492.903 379.593 481.831 360.377L292.421 31.2701C281.349 12.0383 264.446 1 246.059 1C227.654 1 210.74 12.0383 199.683 31.2701L141.245 132.747C155.754 140.9 169.621 150.146 182.725 160.404C252.509 215.006 299.53 297.485 307.013 391.018H270.318C263.099 311.013 223.255 240.341 164.253 192.49C151.325 181.997 137.516 172.636 122.98 164.514L54.5168 283.409C69.398 291.394 82.7652 301.83 94.2089 314.159C113.628 335.151 127.189 361.655 132.332 391.031L71.021 391.003C69.4149 391.002 67.8246 390.686 66.3411 390.07C64.8576 389.455 63.51 388.554 62.3755 387.417C61.2409 386.281 60.3417 384.932 59.7292 383.448C59.1167 381.964 58.803 380.374 58.806 378.769C58.8124 376.73 59.3184 374.724 60.2798 372.926L75.7505 346.587C64.3269 334.228 50.9285 323.85 36.1023 315.879L10.1487 360.335C-0.923664 379.566 -1.9955 399.759 7.20502 415.733C16.3921 431.72 34.3683 440.889 56.5245 440.889H182.932C183.825 433.164 184.348 425.302 184.348 417.355C184.348 408.434 183.716 399.663 182.587 391.045C176.357 343.303 153.443 300.77 119.872 269.54L139.017 236.299C183.454 274.831 213.63 329.433 220.367 391.045C221.33 399.692 221.852 408.461 221.852 417.355C221.852 425.302 221.426 433.135 220.683 440.889H357.047C357.529 433.095 357.858 425.259 357.858 417.355C357.858 408.49 357.447 399.745 356.842 391.045C349.071 279.093 292.283 180.489 207.811 116.842L235.606 68.5515C236.691 66.7488 238.223 65.2571 240.054 64.2213C241.886 63.1855 243.954 62.6408 246.059 62.6402C248.218 62.6387 250.338 63.2122 252.202 64.3016C254.065 65.391 255.605 66.9569 256.662 68.8384L431.715 372.955C432.679 374.751 433.184 376.757 433.185 378.795C433.185 385.56 427.726 391.045 420.974 391.045L393.508 391.071C394.113 399.787 394.524 408.53 394.524 417.383C394.524 425.288 394.195 433.135 393.699 440.918H435.455C457.611 440.918 475.587 431.762 484.774 415.775Z" stroke="white" stroke-width="1"/>
</svg>
