<svg width="490" height="490" viewBox="0 0 490 490" fill="none" xmlns="http://www.w3.org/2000/svg">
<path d="M81.6777 0.5H408.322C452.956 0.5 489.5 37.027 489.509 81.6807V408.347C489.509 452.972 452.966 489.5 408.332 489.5H81.6777C37.0441 489.5 0.5 452.963 0.5 408.347V81.6807L0.506836 80.6357C1.07147 36.4586 37.3927 0.5 81.6777 0.5ZM115.056 88.6045C100.504 88.6045 88.5832 100.526 88.583 115.078V374.949C88.5831 389.494 100.505 401.377 115.056 401.377H374.926C389.486 401.377 401.399 389.503 401.399 374.949V115.078C401.399 100.526 389.487 88.6045 374.926 88.6045H115.056ZM193.067 178.699H296.997C304.872 178.699 311.326 185.153 311.326 193.038L311.335 296.972L311.33 297.341C311.133 305.083 304.749 311.319 297.006 311.319H193.067C185.175 311.319 178.738 304.875 178.738 296.972V193.038C178.738 185.144 185.174 178.699 193.067 178.699Z" stroke="white"/>
</svg>
